PathFileType	4	(X/Y/Z)	5_coords_data.trc
DataRate	CameraRate	NumFrames	NumMarkers	Units	OrigDataRate	OrigDataStartFrame	OrigNumFrames
30.0	30.0	7	21	m	30.0	49	68
Frame#	Time	THUMB_TIP	THUMB_IP	THUMB_MCP	THUMB_CMC	INDEX_TIP	INDEX_DIP	INDEX_PIP	INDEX_MCP	MIDDLE_TIP	MIDDLE_DIP	MIDDLE_PIP	MIDDLE_MCP	RING_TIP	RING_DIP	RING_PIP	RING_MCP	PINKY_TIP	PINKY_DIP	PINKY_PIP	PINKY_MCP	WRIST
X1	Y1	Z1	X2	Y2	Z2	X3	Y3	Z3	X4	Y4	Z4	X5	Y5	Z5	X6	Y6	Z6	X7	Y7	Z7	X8	Y8	Z8	X9	Y9	Z9	X10	Y10	Z10	X11	Y11	Z11	X12	Y12	Z12	X13	Y13	Z13	X14	Y14	Z14	X15	Y15	Z15	X16	Y16	Z16	X17	Y17	Z17	X18	Y18	Z18	X19	Y19	Z19	X20	Y20	Z20	X21	Y21	Z21
47	1.599999999999993	0.5400627045518246	-0.009956731544958242	-0.14357087178312505	0.5232243127199285	-0.010368411886001794	-0.1279408020516	0.5061790276697481	0.0007481725368658765	-0.10438873614800337	0.4764689659234863	-0.016725051297167948	-0.07607109712425941	0.5881404863288289	-0.07613488529204737	-0.14187351478560967	0.5786164793665434	-0.06536693693215778	-0.13085786321608872	0.565164345536092	-0.05142005326527277	-0.11484117303396923	0.5367757643602263	-0.029866849313478605	-0.09153486589976928	0.5398032437933864	-0.09602547939714601	-0.1604684611811138	0.541980138336489	-0.08548308206808364	-0.14590415588685451	0.5451504546943952	-0.07076733664977464	-0.1209480848624663	0.5326468065606833	-0.04880073328460399	-0.08410687097169434	0.5240124334683488	-0.10612369215223849	-0.15077009311279457	0.5277645767769787	-0.09917915242680564	-0.13456223117503763	0.5335044030664579	-0.08943050951751152	-0.11237668780567928	0.523372575564241	-0.06574782937228629	-0.08121264495812364	0.5354545315737972	-0.1278809106756723	-0.122971783635765	0.5300401416686085	-0.11673369682523904	-0.11116398937403688	0.5228315421456596	-0.10224482490698794	-0.09778786503048142	0.5049142318793115	-0.07628102683645588	-0.0803025959855953	0.462283081001861	-0.023011742144276925	-0.051989820119430985
48	1.6333333333333262	0.542672686820478	-0.005250875283407952	-0.1408409257532247	0.526037027352198	-0.007776251626853248	-0.12519236964157665	0.5092600681292164	0.0020238911332191023	-0.10087548577228495	0.4773830602477164	-0.015747293504769444	-0.0752253129641865	0.5862256588590301	-0.08482017530847275	-0.1402824897995146	0.5768037539148432	-0.07351049214402272	-0.1297317185508114	0.5635080283987488	-0.05887583640171412	-0.11420559967632171	0.5360459874348587	-0.035542083365108446	-0.09151180384300356	0.5471048446986404	-0.10417483826033969	-0.15982393165215852	0.5458632744268626	-0.09310603913416782	-0.14554316874660286	0.5440673630947772	-0.07781249507562438	-0.12079863879316305	0.5295428160623646	-0.054771551694325904	-0.08538253535697132	0.5283839488221656	-0.11515045213692432	-0.15113153709530874	0.5284607752780921	-0.10693421791511148	-0.13508511715477417	0.5297232525968035	-0.09577556660296216	-0.11285741752315215	0.518572382636375	-0.07064541573080618	-0.08321193809932936	0.5261879554381724	-0.13421241914826298	-0.12340332724432107	0.5212656304288409	-0.1223620072184437	-0.11207467094288354	0.5149524939826856	-0.10702224870865162	-0.0992042344283946	0.49951804014320766	-0.07915594798990233	-0.08228884587449886	0.4622830810018609	-0.023011742144276925	-0.051989820119430985
49	1.6666666666666594	0.54575239216056	-0.0009386189766590336	-0.1371578072569759	0.5289060635720372	-0.005441621720542744	-0.12219371091352457	0.5119211287220236	0.002899971806028967	-0.09748035813454597	0.47820353465818044	-0.015037612681534807	-0.07443134702132448	0.5842883575479926	-0.09128000857924734	-0.13935197414806338	0.5748889321594463	-0.07955714162885363	-0.12924132665007798	0.5616660667490483	-0.06440699029981367	-0.1141536304029469	0.53500591091781	-0.039790378720999775	-0.0918624972008889	0.5530255158136766	-0.11085863008015295	-0.15742283218613454	0.549178529108592	-0.0992949867641657	-0.14402571135546627	0.5432501806540341	-0.08322482712914181	-0.12044575792238693	0.5266519489113093	-0.05896348814206487	-0.08680004416017123	0.5325482466972101	-0.12224693059423708	-0.14955420153687587	0.5296045861770905	-0.11289954253631451	-0.13442273765406212	0.5269433220963416	-0.1003186010413053	-0.11309628545048006	0.514492080257819	-0.07385302471567956	-0.08518104444433594	0.5190835014543417	-0.1383180887609361	-0.12375258665294517	0.5143909566632994	-0.12593493330587102	-0.11290650513196471	0.5086409938137452	-0.10997794814080852	-0.10053215380873465	0.495227966971429	-0.08075834036118623	-0.08418624657994062	0.4622830810018609	-0.023011742144276925	-0.051989820119430985
50	1.6999999999999926	0.5490779654357416	0.0025631422600668197	-0.1328444132884681	0.53163380904207	-0.0035567896442767477	-0.11919714831707809	0.5140452854009151	0.0034062401248573515	-0.09447913762530347	0.4788915493418886	-0.014635922059255901	-0.07377683763678866	0.5824339243333749	-0.09568137404036736	-0.13918696580883397	0.5730405757344457	-0.08365017850640166	-0.1294393847692901	0.559879347927461	-0.06810814359460882	-0.11470042054471624	0.5338899002634045	-0.04263916238285159	-0.09257541884635617	0.5574880682271308	-0.11624453163895399	-0.15402938618821738	0.5518130819698838	-0.1041653082197147	-0.1417865559366719	0.5427241727945199	-0.08713225915735823	-0.1199536330988715	0.524276067978349	-0.06156076630651741	-0.08830060633884468	0.5359980755183283	-0.12759253004926918	-0.1468121780429666	0.5308605475864742	-0.11727339327015307	-0.13295139801862046	0.5251523023751948	-0.1033484399625536	-0.11310973500895605	0.5113699462931904	-0.0756717665291401	-0.08705653477387892	0.5141200879103408	-0.14067603414150054	-0.1242225173908576	0.5095154817122879	-0.12789980081028385	-0.1138030421820404	0.504095174864148	-0.11150578215174156	-0.10185865249920711	0.4921381380098686	-0.08143700927471798	-0.0859281277641149	0.4622830810018608	-0.023011742144276925	-0.051989820119430985
51	1.7333333333333258	0.552406444510144	0.004793771836049121	-0.1283441712202541	0.5340649976390448	-0.0022207423505378188	-0.11641153038090857	0.5156739117244998	0.003626416819138445	-0.0919902550553181	0.47944808750494594	-0.014462870362857538	-0.07327242000792916	0.5810903264138602	-0.09812361539790693	-0.13947602962298672	0.5716646464919587	-0.08589753841170755	-0.1300060982854644	0.5585213444887257	-0.07010078465683844	-0.11552417796183873	0.5329901347276386	-0.044209826968641286	-0.09335546730642713	0.5605246313162587	-0.12037478743780261	-0.1503251711306291	0.5536597100926051	-0.1077827369147546	-0.13926564491030496	0.5424202165768853	-0.08969541241521939	-0.11936760410326541	0.5226514481037334	-0.06283756160389142	-0.08963547394326227	0.5384553439268694	-0.1315090641209964	-0.1436409221544583	0.5318949038915171	-0.12033534721564876	-0.13110662213165306	0.5240964099450907	-0.10519326047464639	-0.11293849949073298	0.5093532592459726	-0.07639716781269301	-0.08868679050214234	0.5114631728828791	-0.1418415008492312	-0.12448458585934355	0.5067875375144014	-0.12876785115257694	-0.11447368592426227	0.5014392823372484	-0.11207202203950128	-0.10292130626520363	0.49027161198849356	-0.08150388313778045	-0.08737281842661809	0.4622830810018609	-0.023011742144276925	-0.051989820119430985
52	1.7666666666666588	0.5553117609454487	0.0056893896976202285	-0.12453075966693766	0.5360719204988823	-0.0013053773939418756	-0.1140951584420215	0.5168563530645698	0.0036624033021949165	-0.09011802093287591	0.4798936551922014	-0.014410445627975887	-0.07288372090231937	0.5807500869148592	-0.09891447740742054	-0.1395403318685122	0.5712375852064083	-0.08660367357142518	-0.1302690633383507	0.5580290321722492	-0.07069344930592958	-0.1159719054541613	0.5325753878175016	-0.04474319185752196	-0.09378334485588458	0.562379723992451	-0.12332709850324264	-0.1467514854619599	0.554832695802521	-0.11020754717560843	-0.13680564520273733	0.542546762849351	-0.09103470407571357	-0.11861588190199523	0.5219287547776414	-0.06314859854091304	-0.09044833351281345	0.5404056458774817	-0.134156178327008	-0.1404401630429203	0.5329901898017118	-0.12224363030757968	-0.12912193832023774	0.5239602517800933	-0.10606517772772261	-0.11248168981106421	0.5084562770738331	-0.07642116129065102	-0.08977530542723355	0.5109207553155675	-0.14225360358363193	-0.12431686337656261	0.5060518831338658	-0.12896344536711146	-0.11469055680248635	0.5005829621474348	-0.11206753509896439	-0.10349095241416545	0.4895557519923044	-0.08125493293820907	-0.08832956608976844	0.462283081001861	-0.023011742144276925	-0.051989820119430985
53	1.7999999999999918	0.5575355839079252	0.005542347593260555	-0.12183044608738258	0.5376700251504652	-0.0009637138735708595	-0.11228944302461641	0.5177142907411628	0.0035117986389152644	-0.0888254610109862	0.4802436263272464	-0.014447856767326406	-0.0725992449989668	0.5814596465898949	-0.09866988890311257	-0.13898330522950142	0.57179673614666	-0.08637066694933149	-0.12985328326361018	0.5584057748664105	-0.07046748156102856	-0.11571890377612903	0.5326334118777645	-0.044665800836059644	-0.09372584414932317	0.5632981411469415	-0.12514014852887634	-0.14392006046328737	0.5555857698840638	-0.11149579767122719	-0.1348453142311931	0.5431126776040425	-0.09145216478892071	-0.11775484028067329	0.5219432895219497	-0.0629627220542972	-0.09061894925236247	0.5420514719764642	-0.13570519379468793	-0.13765323109573166	0.5341937296556925	-0.12323488134112115	-0.1272730965623659	0.524572579758299	-0.10630162631626272	-0.11175284115483491	0.5084276417364273	-0.07615388742018425	-0.09018491010608098	0.511820888567013	-0.14227743769384682	-0.12369965900668148	0.5067345162908471	-0.12885937293219285	-0.11436775914007824	0.5010267913910476	-0.1118524690092002	-0.10345908761590517	0.4896770388086459	-0.08095190099917104	-0.08872065269302959	0.4622830810018609	-0.023011742144276925	-0.051989820119430985
